<svg width="328" height="164" viewBox="0 0 328 164" fill="none" xmlns="http://www.w3.org/2000/svg">
<path fill-rule="evenodd" clip-rule="evenodd" d="M0 32C0 14.3269 14.3269 0 32 0H132C149.673 0 164 14.3269 164 32V51.25H316C322.627 51.25 328 56.6226 328 63.25V87.9375C328 94.5649 322.627 99.9375 316 99.9375H294V152C294 158.627 288.627 164 282 164H258C251.373 164 246 158.627 246 152V99.9375H164V132C164 149.673 149.673 164 132 164H32C14.3269 164 0 149.673 0 132V32ZM51.25 67.25C51.25 58.4134 58.4134 51.25 67.25 51.25H96.75C105.587 51.25 112.75 58.4134 112.75 67.25V96.75C112.75 105.587 105.587 112.75 96.75 112.75H67.25C58.4134 112.75 51.25 105.587 51.25 96.75V67.25Z" fill="#D9D9D9"/>
</svg>
