<svg width="328" height="164" viewBox="0 0 328 164" fill="none" xmlns="http://www.w3.org/2000/svg">
<path fill-rule="evenodd" clip-rule="evenodd" d="M0 8C0 3.58172 3.58172 0 8 0H156C160.418 0 164 3.58172 164 8V43.25C164 47.6683 167.582 51.25 172 51.25H320C324.418 51.25 328 54.8317 328 59.25V91.9375C328 96.3558 324.418 99.9375 320 99.9375H305.25C300.832 99.9375 297.25 103.519 297.25 107.938V156C297.25 160.418 293.668 164 289.25 164H254C249.582 164 246 160.418 246 156V107.938C246 103.519 242.418 99.9375 238 99.9375H172C167.582 99.9375 164 103.519 164 107.938V156C164 160.418 160.418 164 156 164H8C3.58172 164 0 160.418 0 156V8ZM51.25 59.25C51.25 54.8317 54.8317 51.25 59.25 51.25H104.75C109.168 51.25 112.75 54.8317 112.75 59.25V104.75C112.75 109.168 109.168 112.75 104.75 112.75H59.25C54.8317 112.75 51.25 109.168 51.25 104.75V59.25Z" fill="#D9D9D9"/>
</svg>
